<?xml version="1.0" encoding="UTF-8" standalone="no"?>
<svg xmlns:dc="http://purl.org/dc/elements/1.1/" xmlns:cc="http://creativecommons.org/ns#" xmlns:rdf="http://www.w3.org/1999/02/22-rdf-syntax-ns#" xmlns:svg="http://www.w3.org/2000/svg" xmlns="http://www.w3.org/2000/svg" width="718" height="181" version="1.0"> 
<g transform="translate(-10, -7)" style="fill:none;stroke:black"> 

<g class="node" transform="translate(14.833, 184)"> 
<path d="M 84,-84 C 94,-94 120,-121 130,-131"/> 
<path d="M 82,-75 C 85,-61 96,-25 99,-11"/> 
<path d="M 75,-81 C 61,-85 25,-94 11,-98"/> 
<circle cx="80" cy="-80" r="5.4" style="fill:blue"/> 
<circle cx="6" cy="-99" r="5.4" style="fill:blue"/>
<circle cx="134" cy="-135" r="5.4" style="fill:blue"/> 
<circle cx="101" cy="-6" r="5.4" style="fill:blue"/> 
</g> 

<g class="node" transform="translate(174.5, 184)"> 
<path d="M 90,-85 C 104,-83 144,-80 158,-79"/> 
<path d="M 85,-90 C 87,-104 90,-144 91,-158"/> 
<path d="M 85,-80 C 83,-66 80,-26 79,-12"/> 
<path d="M 80,-85 C 66,-87 26,-90 12,-91"/>
<circle cx="91" cy="-164" r="5.4" style="fill:blue"/> 
<circle cx="85" cy="-85" r="5.4" style="fill:blue"/> 
<circle cx="79" cy="-6" r="5.4" style="fill:blue"/> 
<circle cx="6" cy="-91" r="5.4" style="fill:blue"/> 
<circle cx="164" cy="-79" r="5.4" style="fill:blue"/> 
</g> 

<g class="node" transform="translate(364.498, 184)"> 
<path d="M 86,-86 C 101,-83 140,-74 155,-70"/> 
<path d="M 84,-92 C 92,-105 112,-138 120,-151"/> 
<path d="M 81,-81 C 83,-67 86,-27 87,-12"/> 
<path d="M 77,-91 C 67,-103 41,-133 32,-145"/> 
<path d="M 76,-85 C 62,-79 25,-64 11,-58"/> 
<circle cx="88" cy="-6" r="5.4" style="fill:blue"/> 
<circle cx="81" cy="-87" r="5.4" style="fill:blue"/> 
<circle cx="6" cy="-56" r="5.4" style="fill:blue"/> 
<circle cx="28" cy="-149" r="5.4" style="fill:blue"/> 
<circle cx="160" cy="-69" r="5.4" style="fill:blue"/> 
<circle cx="123" cy="-156" r="5.4" style="fill:blue"/> 
</g> 

<g class="node" transform="translate(553, 184)"> 
<path d="M 91,-88 C 106,-91 145,-102 160,-106"/> 
<path d="M 90,-82 C 101,-71 130,-42 141,-32"/> 
<path d="M 87,-91 C 91,-106 102,-146 106,-161"/> 
<path d="M 85,-81 C 81,-66 70,-26 66,-11"/> 
<path d="M 82,-90 C 71,-101 42,-130 32,-140"/> 
<path d="M 81,-85 C 66,-81 26,-70 11,-66"/> 
<circle cx="86" cy="-86" r="5.4" style="fill:blue"/> 
<circle cx="65" cy="-6" r="5.4" style="fill:blue"/> 
<circle cx="6" cy="-64" r="5.4" style="fill:blue"/> 
<circle cx="28" cy="-144" r="5.4" style="fill:blue"/> 
<circle cx="165" cy="-108" r="5.4" style="fill:blue"/> 
<circle cx="145" cy="-28" r="5.4" style="fill:blue"/> 
<circle cx="107" cy="-166" r="5.4" style="fill:blue"/> 
</g></g>
</svg>